<mxfile host="app.diagrams.net" modified="2021-03-03T14:00:05.871Z" agent="5.0 (Windows NT 10.0; Win64; x64) AppleWebKit/537.36 (KHTML, like Gecko) Chrome/88.0.4324.190 Safari/537.36" etag="B3r_QCfgeAI7R3WBTg9u" version="14.4.3" type="github">
  <diagram id="pXpISvjoVvG705U1Pd6f" name="第 1 页">
    <mxGraphModel dx="1038" dy="548" grid="1" gridSize="10" guides="1" tooltips="1" connect="1" arrows="1" fold="1" page="1" pageScale="1" pageWidth="1169" pageHeight="827" math="0" shadow="0">
      <root>
        <mxCell id="0" />
        <mxCell id="1" parent="0" />
        <mxCell id="FketfnR8hIXqbo0DgLnJ-46" value="Layer L1" style="text;html=1;align=center;verticalAlign=middle;resizable=0;points=[];autosize=1;strokeWidth=2;fontSize=10.5;" vertex="1" parent="1">
          <mxGeometry x="190" y="510" width="60" height="20" as="geometry" />
        </mxCell>
        <mxCell id="FketfnR8hIXqbo0DgLnJ-47" value="Layer L2" style="text;html=1;align=center;verticalAlign=middle;resizable=0;points=[];autosize=1;strokeWidth=2;fontSize=10.5;" vertex="1" parent="1">
          <mxGeometry x="290" y="510" width="60" height="20" as="geometry" />
        </mxCell>
        <mxCell id="FketfnR8hIXqbo0DgLnJ-48" value="Layer L3" style="text;html=1;align=center;verticalAlign=middle;resizable=0;points=[];autosize=1;strokeWidth=2;fontSize=10.5;" vertex="1" parent="1">
          <mxGeometry x="410" y="510" width="60" height="20" as="geometry" />
        </mxCell>
        <mxCell id="FketfnR8hIXqbo0DgLnJ-49" value="Layer L4" style="text;html=1;align=center;verticalAlign=middle;resizable=0;points=[];autosize=1;strokeWidth=2;fontSize=10.5;" vertex="1" parent="1">
          <mxGeometry x="510" y="510" width="60" height="20" as="geometry" />
        </mxCell>
        <mxCell id="FketfnR8hIXqbo0DgLnJ-55" value="" style="group" vertex="1" connectable="0" parent="1">
          <mxGeometry x="190" y="130" width="480" height="363.5" as="geometry" />
        </mxCell>
        <mxCell id="FketfnR8hIXqbo0DgLnJ-19" value="" style="group;strokeWidth=2;fontSize=10.5;" vertex="1" connectable="0" parent="FketfnR8hIXqbo0DgLnJ-55">
          <mxGeometry width="410.3225806451613" height="363.50000000000006" as="geometry" />
        </mxCell>
        <mxCell id="FketfnR8hIXqbo0DgLnJ-40" style="edgeStyle=none;rounded=0;orthogonalLoop=1;jettySize=auto;html=1;exitX=1;exitY=0.5;exitDx=0;exitDy=0;entryX=0;entryY=0.5;entryDx=0;entryDy=0;strokeWidth=2;fontSize=10.5;" edge="1" parent="FketfnR8hIXqbo0DgLnJ-19" source="FketfnR8hIXqbo0DgLnJ-1" target="FketfnR8hIXqbo0DgLnJ-6">
          <mxGeometry relative="1" as="geometry" />
        </mxCell>
        <mxCell id="FketfnR8hIXqbo0DgLnJ-1" value="x&lt;sub style=&quot;font-size: 10.5px;&quot;&gt;1&lt;/sub&gt;" style="ellipse;whiteSpace=wrap;html=1;aspect=fixed;strokeWidth=2;fontSize=10.5;" vertex="1" parent="FketfnR8hIXqbo0DgLnJ-19">
          <mxGeometry width="59.354838709677416" height="59.354838709677416" as="geometry" />
        </mxCell>
        <mxCell id="FketfnR8hIXqbo0DgLnJ-20" style="edgeStyle=orthogonalEdgeStyle;rounded=0;orthogonalLoop=1;jettySize=auto;html=1;exitX=1;exitY=0.5;exitDx=0;exitDy=0;entryX=0;entryY=0.5;entryDx=0;entryDy=0;strokeWidth=2;fontSize=10.5;" edge="1" parent="FketfnR8hIXqbo0DgLnJ-19" source="FketfnR8hIXqbo0DgLnJ-2" target="FketfnR8hIXqbo0DgLnJ-6">
          <mxGeometry relative="1" as="geometry" />
        </mxCell>
        <mxCell id="FketfnR8hIXqbo0DgLnJ-43" style="edgeStyle=none;rounded=0;orthogonalLoop=1;jettySize=auto;html=1;exitX=1;exitY=0.5;exitDx=0;exitDy=0;entryX=0;entryY=0.5;entryDx=0;entryDy=0;strokeWidth=2;fontSize=10.5;" edge="1" parent="FketfnR8hIXqbo0DgLnJ-19" source="FketfnR8hIXqbo0DgLnJ-2" target="FketfnR8hIXqbo0DgLnJ-7">
          <mxGeometry relative="1" as="geometry" />
        </mxCell>
        <mxCell id="FketfnR8hIXqbo0DgLnJ-2" value="x&lt;sub style=&quot;font-size: 10.5px;&quot;&gt;2&lt;/sub&gt;" style="ellipse;whiteSpace=wrap;html=1;aspect=fixed;strokeWidth=2;fontSize=10.5;" vertex="1" parent="FketfnR8hIXqbo0DgLnJ-19">
          <mxGeometry y="96.69891172914147" width="59.354838709677416" height="59.354838709677416" as="geometry" />
        </mxCell>
        <mxCell id="FketfnR8hIXqbo0DgLnJ-21" style="edgeStyle=orthogonalEdgeStyle;rounded=0;orthogonalLoop=1;jettySize=auto;html=1;exitX=1;exitY=0.5;exitDx=0;exitDy=0;strokeWidth=2;fontSize=10.5;" edge="1" parent="FketfnR8hIXqbo0DgLnJ-19" source="FketfnR8hIXqbo0DgLnJ-3" target="FketfnR8hIXqbo0DgLnJ-7">
          <mxGeometry relative="1" as="geometry" />
        </mxCell>
        <mxCell id="FketfnR8hIXqbo0DgLnJ-3" value="x&lt;sub style=&quot;font-size: 10.5px;&quot;&gt;3&lt;/sub&gt;" style="ellipse;whiteSpace=wrap;html=1;aspect=fixed;strokeWidth=2;fontSize=10.5;" vertex="1" parent="FketfnR8hIXqbo0DgLnJ-19">
          <mxGeometry y="193.39782345828294" width="59.354838709677416" height="59.354838709677416" as="geometry" />
        </mxCell>
        <mxCell id="FketfnR8hIXqbo0DgLnJ-4" value="+1" style="ellipse;whiteSpace=wrap;html=1;aspect=fixed;strokeWidth=2;fontSize=10.5;" vertex="1" parent="FketfnR8hIXqbo0DgLnJ-19">
          <mxGeometry y="293.17351874244264" width="59.354838709677416" height="59.354838709677416" as="geometry" />
        </mxCell>
        <mxCell id="FketfnR8hIXqbo0DgLnJ-31" style="edgeStyle=none;rounded=0;orthogonalLoop=1;jettySize=auto;html=1;exitX=1;exitY=0.5;exitDx=0;exitDy=0;entryX=0;entryY=0.5;entryDx=0;entryDy=0;strokeWidth=2;fontSize=10.5;" edge="1" parent="FketfnR8hIXqbo0DgLnJ-19" source="FketfnR8hIXqbo0DgLnJ-5" target="FketfnR8hIXqbo0DgLnJ-9">
          <mxGeometry relative="1" as="geometry" />
        </mxCell>
        <mxCell id="FketfnR8hIXqbo0DgLnJ-5" value="" style="ellipse;whiteSpace=wrap;html=1;aspect=fixed;strokeWidth=2;fontSize=10.5;" vertex="1" parent="FketfnR8hIXqbo0DgLnJ-19">
          <mxGeometry x="123.87096774193547" width="59.354838709677416" height="59.354838709677416" as="geometry" />
        </mxCell>
        <mxCell id="FketfnR8hIXqbo0DgLnJ-14" style="edgeStyle=orthogonalEdgeStyle;rounded=0;orthogonalLoop=1;jettySize=auto;html=1;exitX=1;exitY=0.5;exitDx=0;exitDy=0;entryX=0;entryY=0.5;entryDx=0;entryDy=0;strokeWidth=2;fontSize=10.5;" edge="1" parent="FketfnR8hIXqbo0DgLnJ-19" source="FketfnR8hIXqbo0DgLnJ-1" target="FketfnR8hIXqbo0DgLnJ-5">
          <mxGeometry relative="1" as="geometry" />
        </mxCell>
        <mxCell id="FketfnR8hIXqbo0DgLnJ-16" value="" style="edgeStyle=orthogonalEdgeStyle;rounded=0;orthogonalLoop=1;jettySize=auto;html=1;strokeWidth=2;fontSize=10.5;entryX=0;entryY=0.5;entryDx=0;entryDy=0;" edge="1" parent="FketfnR8hIXqbo0DgLnJ-19" source="FketfnR8hIXqbo0DgLnJ-1" target="FketfnR8hIXqbo0DgLnJ-5">
          <mxGeometry relative="1" as="geometry" />
        </mxCell>
        <mxCell id="FketfnR8hIXqbo0DgLnJ-33" style="edgeStyle=none;rounded=0;orthogonalLoop=1;jettySize=auto;html=1;exitX=1;exitY=0.5;exitDx=0;exitDy=0;entryX=0;entryY=0.5;entryDx=0;entryDy=0;strokeWidth=2;fontSize=10.5;" edge="1" parent="FketfnR8hIXqbo0DgLnJ-19" source="FketfnR8hIXqbo0DgLnJ-6" target="FketfnR8hIXqbo0DgLnJ-9">
          <mxGeometry relative="1" as="geometry" />
        </mxCell>
        <mxCell id="FketfnR8hIXqbo0DgLnJ-34" style="rounded=0;orthogonalLoop=1;jettySize=auto;html=1;entryX=0;entryY=0.5;entryDx=0;entryDy=0;strokeWidth=2;fontSize=10.5;exitX=1;exitY=0.5;exitDx=0;exitDy=0;" edge="1" parent="FketfnR8hIXqbo0DgLnJ-19" source="FketfnR8hIXqbo0DgLnJ-6" target="FketfnR8hIXqbo0DgLnJ-10">
          <mxGeometry relative="1" as="geometry">
            <mxPoint x="180" y="132" as="sourcePoint" />
          </mxGeometry>
        </mxCell>
        <mxCell id="FketfnR8hIXqbo0DgLnJ-6" value="" style="ellipse;whiteSpace=wrap;html=1;aspect=fixed;strokeWidth=2;fontSize=10.5;" vertex="1" parent="FketfnR8hIXqbo0DgLnJ-19">
          <mxGeometry x="123.87096774193547" y="96.69891172914147" width="59.354838709677416" height="59.354838709677416" as="geometry" />
        </mxCell>
        <mxCell id="FketfnR8hIXqbo0DgLnJ-7" value="" style="ellipse;whiteSpace=wrap;html=1;aspect=fixed;strokeWidth=2;fontSize=10.5;" vertex="1" parent="FketfnR8hIXqbo0DgLnJ-19">
          <mxGeometry x="123.87096774193547" y="193.39782345828294" width="59.354838709677416" height="59.354838709677416" as="geometry" />
        </mxCell>
        <mxCell id="FketfnR8hIXqbo0DgLnJ-24" style="edgeStyle=none;rounded=0;orthogonalLoop=1;jettySize=auto;html=1;exitX=1;exitY=0.5;exitDx=0;exitDy=0;entryX=0;entryY=0.5;entryDx=0;entryDy=0;strokeWidth=2;fontSize=10.5;" edge="1" parent="FketfnR8hIXqbo0DgLnJ-19" source="FketfnR8hIXqbo0DgLnJ-8" target="FketfnR8hIXqbo0DgLnJ-10">
          <mxGeometry relative="1" as="geometry" />
        </mxCell>
        <mxCell id="FketfnR8hIXqbo0DgLnJ-35" style="edgeStyle=none;rounded=0;orthogonalLoop=1;jettySize=auto;html=1;exitX=1;exitY=0.5;exitDx=0;exitDy=0;strokeWidth=2;fontSize=10.5;entryX=0;entryY=0.5;entryDx=0;entryDy=0;" edge="1" parent="FketfnR8hIXqbo0DgLnJ-19" source="FketfnR8hIXqbo0DgLnJ-8" target="FketfnR8hIXqbo0DgLnJ-9">
          <mxGeometry relative="1" as="geometry">
            <mxPoint x="232.258064516129" y="87.9081015719468" as="targetPoint" />
          </mxGeometry>
        </mxCell>
        <mxCell id="FketfnR8hIXqbo0DgLnJ-8" value="+1" style="ellipse;whiteSpace=wrap;html=1;aspect=fixed;strokeWidth=2;fontSize=10.5;" vertex="1" parent="FketfnR8hIXqbo0DgLnJ-19">
          <mxGeometry x="123.87096774193547" y="293.17351874244264" width="59.354838709677416" height="59.354838709677416" as="geometry" />
        </mxCell>
        <mxCell id="FketfnR8hIXqbo0DgLnJ-30" style="edgeStyle=none;rounded=0;orthogonalLoop=1;jettySize=auto;html=1;exitX=1;exitY=0.5;exitDx=0;exitDy=0;entryX=0;entryY=0.5;entryDx=0;entryDy=0;strokeWidth=2;fontSize=10.5;" edge="1" parent="FketfnR8hIXqbo0DgLnJ-19" source="FketfnR8hIXqbo0DgLnJ-9" target="FketfnR8hIXqbo0DgLnJ-13">
          <mxGeometry relative="1" as="geometry" />
        </mxCell>
        <mxCell id="FketfnR8hIXqbo0DgLnJ-9" value="" style="ellipse;whiteSpace=wrap;html=1;aspect=fixed;strokeWidth=2;fontSize=10.5;" vertex="1" parent="FketfnR8hIXqbo0DgLnJ-19">
          <mxGeometry x="239.99999999999997" y="52.74486094316808" width="59.354838709677416" height="59.354838709677416" as="geometry" />
        </mxCell>
        <mxCell id="FketfnR8hIXqbo0DgLnJ-28" style="edgeStyle=none;rounded=0;orthogonalLoop=1;jettySize=auto;html=1;exitX=1;exitY=0.5;exitDx=0;exitDy=0;entryX=0;entryY=0.5;entryDx=0;entryDy=0;strokeWidth=2;fontSize=10.5;" edge="1" parent="FketfnR8hIXqbo0DgLnJ-19" source="FketfnR8hIXqbo0DgLnJ-10" target="FketfnR8hIXqbo0DgLnJ-12">
          <mxGeometry relative="1" as="geometry" />
        </mxCell>
        <mxCell id="FketfnR8hIXqbo0DgLnJ-10" value="" style="ellipse;whiteSpace=wrap;html=1;aspect=fixed;strokeWidth=2;fontSize=10.5;" vertex="1" parent="FketfnR8hIXqbo0DgLnJ-19">
          <mxGeometry x="239.99999999999997" y="149.44377267230954" width="59.354838709677416" height="59.354838709677416" as="geometry" />
        </mxCell>
        <mxCell id="FketfnR8hIXqbo0DgLnJ-11" value="+1" style="ellipse;whiteSpace=wrap;html=1;aspect=fixed;strokeWidth=2;fontSize=10.5;" vertex="1" parent="FketfnR8hIXqbo0DgLnJ-19">
          <mxGeometry x="239.99999999999997" y="246.14268440145102" width="59.354838709677416" height="59.354838709677416" as="geometry" />
        </mxCell>
        <mxCell id="FketfnR8hIXqbo0DgLnJ-12" value="" style="ellipse;whiteSpace=wrap;html=1;aspect=fixed;strokeWidth=2;fontSize=10.5;" vertex="1" parent="FketfnR8hIXqbo0DgLnJ-19">
          <mxGeometry x="348.38709677419354" y="101.0943168077388" width="59.354838709677416" height="59.354838709677416" as="geometry" />
        </mxCell>
        <mxCell id="FketfnR8hIXqbo0DgLnJ-13" value="" style="ellipse;whiteSpace=wrap;html=1;aspect=fixed;strokeWidth=2;fontSize=10.5;" vertex="1" parent="FketfnR8hIXqbo0DgLnJ-19">
          <mxGeometry x="348.38709677419354" y="197.79322853688032" width="59.354838709677416" height="59.354838709677416" as="geometry" />
        </mxCell>
        <mxCell id="FketfnR8hIXqbo0DgLnJ-32" style="edgeStyle=none;rounded=0;orthogonalLoop=1;jettySize=auto;html=1;strokeWidth=2;fontSize=10.5;exitX=1;exitY=0.5;exitDx=0;exitDy=0;entryX=0;entryY=0.5;entryDx=0;entryDy=0;" edge="1" parent="FketfnR8hIXqbo0DgLnJ-19" source="FketfnR8hIXqbo0DgLnJ-5" target="FketfnR8hIXqbo0DgLnJ-10">
          <mxGeometry relative="1" as="geometry">
            <mxPoint x="185.80645161290323" y="35.163240628778716" as="sourcePoint" />
            <mxPoint x="239.99999999999997" y="193.39782345828294" as="targetPoint" />
          </mxGeometry>
        </mxCell>
        <mxCell id="FketfnR8hIXqbo0DgLnJ-26" style="edgeStyle=none;rounded=0;orthogonalLoop=1;jettySize=auto;html=1;entryX=0;entryY=0.5;entryDx=0;entryDy=0;strokeWidth=2;fontSize=10.5;exitX=1;exitY=0.5;exitDx=0;exitDy=0;" edge="1" parent="FketfnR8hIXqbo0DgLnJ-19" source="FketfnR8hIXqbo0DgLnJ-11" target="FketfnR8hIXqbo0DgLnJ-12">
          <mxGeometry relative="1" as="geometry">
            <mxPoint x="348.38709677419354" y="254.9334945586457" as="targetPoint" />
            <mxPoint x="301.93548387096774" y="281.30592503022973" as="sourcePoint" />
          </mxGeometry>
        </mxCell>
        <mxCell id="FketfnR8hIXqbo0DgLnJ-44" style="edgeStyle=none;rounded=0;orthogonalLoop=1;jettySize=auto;html=1;exitX=1;exitY=0.5;exitDx=0;exitDy=0;strokeWidth=2;fontSize=10.5;entryX=0;entryY=0.5;entryDx=0;entryDy=0;" edge="1" parent="FketfnR8hIXqbo0DgLnJ-19" source="FketfnR8hIXqbo0DgLnJ-3" target="FketfnR8hIXqbo0DgLnJ-6">
          <mxGeometry relative="1" as="geometry">
            <mxPoint x="121" y="120" as="targetPoint" />
          </mxGeometry>
        </mxCell>
        <mxCell id="FketfnR8hIXqbo0DgLnJ-38" style="edgeStyle=none;rounded=0;orthogonalLoop=1;jettySize=auto;html=1;exitX=1;exitY=0.5;exitDx=0;exitDy=0;strokeWidth=2;fontSize=10.5;entryX=0;entryY=0.5;entryDx=0;entryDy=0;" edge="1" parent="FketfnR8hIXqbo0DgLnJ-19" source="FketfnR8hIXqbo0DgLnJ-4" target="FketfnR8hIXqbo0DgLnJ-6">
          <mxGeometry relative="1" as="geometry">
            <mxPoint x="124" y="120" as="targetPoint" />
            <Array as="points" />
          </mxGeometry>
        </mxCell>
        <mxCell id="FketfnR8hIXqbo0DgLnJ-37" style="edgeStyle=none;rounded=0;orthogonalLoop=1;jettySize=auto;html=1;exitX=1;exitY=0.5;exitDx=0;exitDy=0;strokeWidth=2;fontSize=10.5;entryX=0;entryY=0.5;entryDx=0;entryDy=0;" edge="1" parent="FketfnR8hIXqbo0DgLnJ-19" source="FketfnR8hIXqbo0DgLnJ-7" target="FketfnR8hIXqbo0DgLnJ-9">
          <mxGeometry relative="1" as="geometry">
            <mxPoint x="240" y="80" as="targetPoint" />
          </mxGeometry>
        </mxCell>
        <mxCell id="FketfnR8hIXqbo0DgLnJ-25" style="edgeStyle=none;rounded=0;orthogonalLoop=1;jettySize=auto;html=1;exitX=1;exitY=0.5;exitDx=0;exitDy=0;strokeWidth=2;fontSize=10.5;entryX=0;entryY=0.5;entryDx=0;entryDy=0;" edge="1" parent="FketfnR8hIXqbo0DgLnJ-19" source="FketfnR8hIXqbo0DgLnJ-11" target="FketfnR8hIXqbo0DgLnJ-13">
          <mxGeometry relative="1" as="geometry">
            <mxPoint x="348" y="237" as="targetPoint" />
          </mxGeometry>
        </mxCell>
        <mxCell id="FketfnR8hIXqbo0DgLnJ-27" style="edgeStyle=none;rounded=0;orthogonalLoop=1;jettySize=auto;html=1;exitX=1;exitY=0.5;exitDx=0;exitDy=0;strokeWidth=2;fontSize=10.5;entryX=0;entryY=0.5;entryDx=0;entryDy=0;" edge="1" parent="FketfnR8hIXqbo0DgLnJ-19" source="FketfnR8hIXqbo0DgLnJ-10" target="FketfnR8hIXqbo0DgLnJ-13">
          <mxGeometry relative="1" as="geometry">
            <mxPoint x="348.38709677419354" y="237.35187424425635" as="targetPoint" />
          </mxGeometry>
        </mxCell>
        <mxCell id="FketfnR8hIXqbo0DgLnJ-29" style="edgeStyle=none;rounded=0;orthogonalLoop=1;jettySize=auto;html=1;exitX=1;exitY=0.5;exitDx=0;exitDy=0;strokeWidth=2;fontSize=10.5;entryX=0;entryY=0.5;entryDx=0;entryDy=0;" edge="1" parent="FketfnR8hIXqbo0DgLnJ-19" source="FketfnR8hIXqbo0DgLnJ-9" target="FketfnR8hIXqbo0DgLnJ-12">
          <mxGeometry relative="1" as="geometry">
            <mxPoint x="348.38709677419354" y="140.65296251511487" as="targetPoint" />
          </mxGeometry>
        </mxCell>
        <mxCell id="FketfnR8hIXqbo0DgLnJ-23" style="rounded=0;orthogonalLoop=1;jettySize=auto;html=1;exitX=1;exitY=0.5;exitDx=0;exitDy=0;strokeWidth=2;fontSize=10.5;" edge="1" parent="FketfnR8hIXqbo0DgLnJ-55" source="FketfnR8hIXqbo0DgLnJ-4">
          <mxGeometry relative="1" as="geometry">
            <mxPoint x="124" y="220" as="targetPoint" />
          </mxGeometry>
        </mxCell>
        <mxCell id="FketfnR8hIXqbo0DgLnJ-36" style="edgeStyle=none;rounded=0;orthogonalLoop=1;jettySize=auto;html=1;exitX=1;exitY=0.5;exitDx=0;exitDy=0;strokeWidth=2;fontSize=10.5;" edge="1" parent="FketfnR8hIXqbo0DgLnJ-55" source="FketfnR8hIXqbo0DgLnJ-7">
          <mxGeometry relative="1" as="geometry">
            <mxPoint x="240" y="180" as="targetPoint" />
          </mxGeometry>
        </mxCell>
        <mxCell id="FketfnR8hIXqbo0DgLnJ-39" style="edgeStyle=none;rounded=0;orthogonalLoop=1;jettySize=auto;html=1;exitX=1;exitY=0.5;exitDx=0;exitDy=0;strokeWidth=2;fontSize=10.5;" edge="1" parent="FketfnR8hIXqbo0DgLnJ-55" source="FketfnR8hIXqbo0DgLnJ-4">
          <mxGeometry relative="1" as="geometry">
            <mxPoint x="124" y="30" as="targetPoint" />
          </mxGeometry>
        </mxCell>
        <mxCell id="FketfnR8hIXqbo0DgLnJ-41" style="edgeStyle=none;rounded=0;orthogonalLoop=1;jettySize=auto;html=1;exitX=1;exitY=0.5;exitDx=0;exitDy=0;strokeWidth=2;fontSize=10.5;" edge="1" parent="FketfnR8hIXqbo0DgLnJ-55" source="FketfnR8hIXqbo0DgLnJ-1">
          <mxGeometry relative="1" as="geometry">
            <mxPoint x="123.87096774193547" y="228.56106408706168" as="targetPoint" />
          </mxGeometry>
        </mxCell>
        <mxCell id="FketfnR8hIXqbo0DgLnJ-42" style="edgeStyle=none;rounded=0;orthogonalLoop=1;jettySize=auto;html=1;strokeWidth=2;fontSize=10.5;exitX=1;exitY=0.5;exitDx=0;exitDy=0;" edge="1" parent="FketfnR8hIXqbo0DgLnJ-55" source="FketfnR8hIXqbo0DgLnJ-2">
          <mxGeometry relative="1" as="geometry">
            <mxPoint x="124" y="30" as="targetPoint" />
            <mxPoint x="61.93548387096774" y="131.8621523579202" as="sourcePoint" />
          </mxGeometry>
        </mxCell>
        <mxCell id="FketfnR8hIXqbo0DgLnJ-45" style="edgeStyle=none;rounded=0;orthogonalLoop=1;jettySize=auto;html=1;exitX=1;exitY=0.5;exitDx=0;exitDy=0;strokeWidth=2;fontSize=10.5;" edge="1" parent="FketfnR8hIXqbo0DgLnJ-55" source="FketfnR8hIXqbo0DgLnJ-3">
          <mxGeometry relative="1" as="geometry">
            <mxPoint x="124" y="30" as="targetPoint" />
          </mxGeometry>
        </mxCell>
        <mxCell id="FketfnR8hIXqbo0DgLnJ-52" value="h&lt;sub style=&quot;font-size: 10.5px;&quot;&gt;w,b&lt;/sub&gt;(x)" style="text;html=1;align=center;verticalAlign=middle;resizable=0;points=[];autosize=1;strokeWidth=2;fontSize=10.5;" vertex="1" parent="FketfnR8hIXqbo0DgLnJ-55">
          <mxGeometry x="429.6774193548387" y="175.8162031438936" width="50" height="20" as="geometry" />
        </mxCell>
        <mxCell id="FketfnR8hIXqbo0DgLnJ-56" style="edgeStyle=none;rounded=0;orthogonalLoop=1;jettySize=auto;html=1;exitX=1;exitY=0.5;exitDx=0;exitDy=0;strokeWidth=2;fontSize=10.5;" edge="1" parent="1" source="FketfnR8hIXqbo0DgLnJ-12">
          <mxGeometry relative="1" as="geometry">
            <mxPoint x="650" y="261" as="targetPoint" />
          </mxGeometry>
        </mxCell>
        <mxCell id="FketfnR8hIXqbo0DgLnJ-57" style="edgeStyle=none;rounded=0;orthogonalLoop=1;jettySize=auto;html=1;exitX=1;exitY=0.5;exitDx=0;exitDy=0;strokeWidth=2;fontSize=10.5;" edge="1" parent="1" source="FketfnR8hIXqbo0DgLnJ-13">
          <mxGeometry relative="1" as="geometry">
            <mxPoint x="650" y="357" as="targetPoint" />
          </mxGeometry>
        </mxCell>
      </root>
    </mxGraphModel>
  </diagram>
</mxfile>
